<?xml version="1.0" encoding="UTF-8" standalone="no"?>
<!-- Created with Inkscape (http://www.inkscape.org/) -->

<svg
   xmlns:dc="http://purl.org/dc/elements/1.1/"
   xmlns:cc="http://creativecommons.org/ns#"
   xmlns:rdf="http://www.w3.org/1999/02/22-rdf-syntax-ns#"
   xmlns:svg="http://www.w3.org/2000/svg"
   xmlns="http://www.w3.org/2000/svg"
   xmlns:xlink="http://www.w3.org/1999/xlink"
   xmlns:sodipodi="http://sodipodi.sourceforge.net/DTD/sodipodi-0.dtd"
   xmlns:inkscape="http://www.inkscape.org/namespaces/inkscape"
   id="svg2985"
   version="1.1"
   inkscape:version="0.48.5 r10040"
   width="880.02704"
   height="878.95593"
   sodipodi:docname="guigrid-icon.svg">
  <metadata
     id="metadata2991">
    <rdf:RDF>
      <cc:Work
         rdf:about="">
        <dc:format>image/svg+xml</dc:format>
        <dc:type
           rdf:resource="http://purl.org/dc/dcmitype/StillImage" />
        <dc:title />
      </cc:Work>
    </rdf:RDF>
  </metadata>
  <defs
     id="defs2989">
    <linearGradient
       id="linearGradient5332">
      <stop
         style="stop-color:#3fa000;stop-opacity:1;"
         offset="0"
         id="stop5338" />
      <stop
         id="stop3800"
         offset="0.5"
         style="stop-color:#00c600;stop-opacity:0.50314468;" />
      <stop
         id="stop5336"
         offset="1"
         style="stop-color:#00ec00;stop-opacity:0;" />
    </linearGradient>
    <linearGradient
       id="linearGradient3781">
      <stop
         style="stop-color:#00c300;stop-opacity:1;"
         offset="0"
         id="stop3783" />
      <stop
         style="stop-color:#00c300;stop-opacity:0;"
         offset="1"
         id="stop3785" />
    </linearGradient>
    <linearGradient
       id="linearGradient3775">
      <stop
         id="stop3777"
         offset="0"
         style="stop-color:#00bc00;stop-opacity:1;" />
      <stop
         id="stop3779"
         offset="1"
         style="stop-color:#00a000;stop-opacity:0;" />
    </linearGradient>
    <linearGradient
       inkscape:collect="always"
       xlink:href="#linearGradient5332"
       id="linearGradient5330"
       x1="13.45045"
       y1="453.3252"
       x2="753.47748"
       y2="453.3252"
       gradientUnits="userSpaceOnUse"
       gradientTransform="translate(56.963668,-13.847177)" />
  </defs>
  <sodipodi:namedview
     pagecolor="#ffffff"
     bordercolor="#666666"
     borderopacity="1"
     objecttolerance="10"
     gridtolerance="10"
     guidetolerance="10"
     inkscape:pageopacity="0"
     inkscape:pageshadow="2"
     inkscape:window-width="1024"
     inkscape:window-height="1217"
     id="namedview2987"
     showgrid="false"
     fit-margin-top="0"
     fit-margin-left="70"
     fit-margin-right="70"
     fit-margin-bottom="0"
     inkscape:zoom="0.56078861"
     inkscape:cx="428.97461"
     inkscape:cy="247.84428"
     inkscape:window-x="0"
     inkscape:window-y="27"
     inkscape:window-maximized="1"
     inkscape:current-layer="svg2985" />
  <path
     inkscape:connector-curvature="0"
     id="path3802"
     d="m 434.5271,876.8446 c -8.6709,-4.4806 -29.65582,-16.6077 -42,-24.2717 -7.14999,-4.4392 -13.79268,-8.5216 -14.76155,-9.0721 -3.36108,-1.9097 -34.16359,-22.90217 -40.68385,-27.72687 -69.08517,-51.1195 -119.11721,-99.0372 -163.0546,-156.164 -21.46924,-27.91408 -41.21535,-59.4479 -57.36726,-91.61351 C 96.09639,527.04545 82.6228,487.42119 73.30676,440.5 L 70.52711,426.5 70.26356,213.25 70,0 l 370.01355,0 370.0135,0 0,207.62166 c 0,183.14327 -0.1844,208.87474 -1.56421,218.25 -6.2192,42.25811 -18.5281,84.24623 -36.0951,123.12834 -7.49136,16.58093 -25.01946,49.25828 -31.47605,58.68018 -1.5755,2.29909 -2.8646,4.37424 -2.8646,4.61144 0,2.75349 -33.9384,49.38674 -48.91241,67.20831 -25.20371,29.9968 -61.6296,66.6031 -90.08759,90.534 -3.57501,3.0063 -6.9884,5.916 -7.58541,6.466 -0.59701,0.55 -3.04982,2.575 -5.45073,4.5 -2.40088,1.925 -5.73743,4.6696 -7.41456,6.0991 -14.76102,12.5816 -63.31142,47.37827 -84.0493,60.23917 -3.3,2.0465 -6.675,4.1492 -7.5,4.6726 -8.74354,5.5473 -21.05661,12.9891 -21.49131,12.9891 -0.30164,0 -2.22699,1.0542 -4.27856,2.3426 -5.79262,3.638 -20.90142,11.6625 -21.86555,11.6132 -0.47552,-0.024 -2.66458,-0.9743 -4.86458,-2.1111 z"
     style="fill:#5adc00;fill-opacity:1" />
  <path
     style="fill:url(#linearGradient5330);fill-opacity:1"
     d="m 434.94121,876.84461 c -8.6709,-4.4806 -29.65582,-16.6077 -42,-24.2717 -7.14999,-4.4392 -13.79268,-8.5216 -14.76155,-9.0721 -3.36108,-1.9097 -34.16359,-22.9022 -40.68385,-27.7269 -69.08517,-51.1195 -119.11721,-99.0372 -163.0546,-156.164 -21.46924,-27.9141 -41.21534,-59.4479 -57.36725,-91.6135 C 96.510509,527.04545 83.036919,487.42119 73.720879,440.5 l -2.77965,-14 L 70.677679,213.25 70.414119,3.3162331e-6 l 370.013541,0 370.0135,0 0,207.6216566837669 c 0,183.14327 -0.1844,208.87474 -1.56421,218.25 -6.2192,42.25811 -18.5281,84.24623 -36.0951,123.12834 -7.49136,16.58091 -25.01946,49.25831 -31.47605,58.68021 -1.5755,2.2991 -2.8646,4.3742 -2.8646,4.6114 0,2.7535 -33.9384,49.3867 -48.91241,67.2083 -25.20371,29.9968 -61.6296,66.6031 -90.08759,90.534 -3.57501,3.0063 -6.9884,5.916 -7.58541,6.466 -0.59701,0.55 -3.04982,2.575 -5.45073,4.5 -2.40088,1.925 -5.73743,4.6696 -7.41456,6.0991 -14.76102,12.5816 -63.31142,47.3783 -84.0493,60.2392 -3.3,2.0465 -6.675,4.1492 -7.5,4.6726 -8.74354,5.5473 -21.05661,12.9891 -21.49131,12.9891 -0.30164,0 -2.22699,1.0542 -4.27856,2.3426 -5.79262,3.638 -20.90142,11.6625 -21.86555,11.6132 -0.47552,-0.024 -2.66458,-0.9743 -4.86458,-2.1111 z"
     id="path2997"
     inkscape:connector-curvature="0" />
  <path
     style="fill:#ffffff"
     d="m 73.740699,233.73711 0,-24.64046 24.750004,-0.21257 c 13.612497,-0.11692 29.475007,-0.25857 35.249997,-0.31479 5.77501,-0.0562 156.075,-0.42052 334,-0.80956 177.925,-0.38905 327.21251,-0.97562 331.75001,-1.30349 l 8.25,-0.59614 0,24.97821 0,24.97822 -119.75,0.6382 c -65.8625,0.35102 -231.01251,0.92725 -367.00001,1.28053 L 73.740699,258.37757 z M 187.2407,194.21957 c -2.75,-0.99271 -6.44014,-2.55148 -8.20034,-3.46392 -2.81029,-1.4568 -7.66048,-1.65899 -39.79545,-1.65899 l -36.59512,0 -2.45454,-2.45455 c -2.14584,-2.14583 -2.454547,-3.34891 -2.454547,-9.56574 0,-9.23077 -0.811349,-10.61585 -6.733769,-11.49544 -2.621427,-0.38933 -7.016235,-1.44507 -9.766235,-2.34607 -4.5347,-1.48575 -5.1261,-2.03675 -6.35514,-5.92095 -1.68227,-5.31658 -0.79534,-10.65768 2.28056,-13.73357 1.66181,-1.66181 4.41742,-2.6356 10.012146,-3.53813 4.245604,-0.68488 8.384687,-1.91066 9.197962,-2.72393 C 98.472771,135.22173 97.985698,96.48016 95.846202,95.1603 95.079226,94.68715 91.709975,93.76062 88.358976,93.10135 77.863959,91.03658 74.740699,88.17286 74.740699,80.6147 c 0,-7.7399 2.79109,-10.32752 13.500004,-12.51589 9.753339,-1.99309 9.5,-1.64667 9.5,-12.99029 0,-5.45477 0.512026,-11.04154 1.137836,-12.41504 1.459911,-3.20417 5.553351,-4.59683 13.511391,-4.59683 4.72758,0 6.35078,-0.35209 6.35078,-1.37755 0,-0.75766 0.70126,-1.95954 1.55835,-2.67086 1.28074,-1.06292 3.28483,-0.98346 11.24999,0.44603 5.65945,1.01569 19.88485,2.15803 34.19165,2.74572 22.59169,0.928 24.82065,1.18398 28.61652,3.28652 4.00061,2.21593 4.1836,2.22932 6.5,0.47533 3.19005,-2.41552 5.73446,-2.72966 31.54178,-3.89422 12.18707,-0.54994 25.37898,-1.67737 29.31538,-2.50542 3.93639,-0.82805 8.89636,-1.50554 11.02215,-1.50554 3.24687,0 3.91618,0.35988 4.18462,2.25 0.29676,2.08954 0.94271,2.28738 9.05811,2.77425 11.93801,0.71622 12.12815,0.94938 12.76145,15.64874 l 0.5,11.60539 9.5,2.44845 c 5.225,1.34665 10.4,2.47369 11.5,2.50454 2.22253,0.0623 16.68403,-3.60905 18.4046,-4.67242 0.65607,-0.40547 1.0954,-4.11611 1.0954,-9.25196 0,-4.71623 0.51481,-10.29324 1.14402,-12.39336 1.38941,-4.63743 4.30928,-5.91364 13.52995,-5.91364 5.96881,0 6.43949,-0.16823 7.37815,-2.63707 0.95609,-2.51472 1.24493,-2.60703 6.22525,-1.98939 2.87244,0.35622 7.47263,1.06341 10.22263,1.57151 2.75,0.50811 15.35,1.41695 28,2.01966 26.82093,1.27788 28.61869,1.50106 31.61148,3.92448 2.19632,1.77848 2.37142,1.76452 6.82136,-0.54397 4.21852,-2.18843 6.36504,-2.44554 28.11938,-3.36811 12.95373,-0.54934 26.67872,-1.6611 30.5,-2.47058 3.82128,-0.80949 8.87142,-1.47961 11.22253,-1.48916 3.59757,-0.0146 4.41897,0.362 5.18522,2.37736 0.84579,2.22459 1.5159,2.41996 9.43253,2.74999 10.95215,0.45659 11.49601,1.07871 11.67538,13.35528 0.18679,12.78599 0.50666,13.53458 6.45228,15.10033 2.73892,0.72127 6.10483,1.34127 7.47983,1.37777 1.375,0.0365 3.5983,0.91052 4.94067,1.94226 2.14314,1.64721 2.70011,1.70589 4.56894,0.48138 1.9138,-1.25396 6.16001,-2.41663 14.99039,-4.10458 1.65,-0.3154 3.33062,-1.07379 3.7347,-1.68531 0.40408,-0.61152 0.74158,-5.86334 0.75,-11.67072 0.0203,-14.01732 0.26708,-14.33482 11.49946,-14.79641 8.047,-0.33068 8.70842,-0.52103 9.55588,-2.74999 1.11023,-2.92014 4.09472,-3.08603 15.74843,-0.87536 4.43936,0.84213 18.41774,1.88852 31.36047,2.34759 20.9784,0.74409 23.77931,1.04719 27.56579,2.98298 l 4.21474,2.15472 4.08766,-2.13061 c 3.60505,-1.87905 6.59048,-2.22978 25.28527,-2.97058 22.04624,-0.8736 22.92342,-0.95886 36.44939,-3.54292 9.37975,-1.79195 13.24821,-1.30767 13.24821,1.65851 0,1.74427 0.68698,1.98161 5.75,1.98652 7.35619,0.007 12.95154,1.56822 14.23823,3.97243 0.55647,1.03978 1.01177,6.38795 1.01177,11.88482 0,10.69451 0.96939,13.13717 5.21362,13.13717 4.27889,0 15.76405,4.08976 16.77148,5.97217 1.31847,2.46358 1.30889,11.60999 -0.0147,14.08323 -1.42224,2.65747 -5.97041,4.82766 -12.74036,6.07915 -10.13476,1.87352 -9.46522,0.13764 -9.08034,23.54227 0.18548,11.27834 0.6984,20.72929 1.13985,21.00211 0.44143,0.27282 4.90899,1.33735 9.9279,2.36562 5.01891,1.02827 9.80598,2.55027 10.63794,3.38223 2.37199,2.372 2.65512,12.43441 0.4482,15.92939 -1.52922,2.42174 -3.23211,3.21657 -11.19593,5.22572 -5.16581,1.30326 -9.66581,2.64251 -10,2.97612 -0.33418,0.33361 -0.85688,4.67356 -1.16155,9.64433 -0.4471,7.29473 -0.9179,9.30391 -2.44114,10.41772 -1.52292,1.11359 -8.9438,1.38036 -38.44605,1.38209 l -36.55887,0.002 -5.5,2.83302 c -8.53518,4.39643 -15.78846,5.74481 -22.74874,4.22901 -3.16319,-0.68889 -7.32626,-2.22312 -9.25126,-3.40942 -3.38599,-2.08663 -4.76112,-2.17319 -42.21583,-2.6569 -34.99562,-0.45195 -38.8823,-0.66661 -40.44817,-2.23388 -1.18481,-1.18586 -2.06479,-4.62784 -2.78417,-10.89007 l -1.05187,-9.15604 -5.50001,-1.3749 c -3.02499,-0.7562 -7.85681,-2.10298 -10.73738,-2.99285 -3.4619,-1.06946 -5.66541,-1.29105 -6.5,-0.65364 -0.69444,0.53037 -4.9316,1.77886 -9.41592,2.77441 -9.13815,2.02875 -9.3467,2.30959 -9.3467,12.58702 0,7.20421 -1.2807,9.6465 -5.70238,10.87437 -2.32115,0.64457 -17.13289,1.05674 -38.09728,1.06015 -27.37717,0.004 -34.84465,0.28715 -37,1.40071 -4.84262,2.50193 -15.44863,5.60514 -19.1155,5.593 -4.69605,-0.0156 -12.53229,-2.14497 -17.795,-4.83562 -4.07898,-2.08544 -5.33113,-2.15251 -40.1849,-2.15251 -20.10569,0 -37.0685,-0.41585 -38.45427,-0.94272 -3.04697,-1.15845 -3.78489,-3.34669 -4.55124,-13.49615 l -0.59943,-7.93887 -7.5,-1.69205 c -4.125,-0.93062 -8.55046,-2.10711 -9.83436,-2.61441 -1.67506,-0.66185 -5.25053,-0.20397 -12.65947,1.62121 l -10.32511,2.54357 -0.34053,8.73302 c -0.5533,14.18969 2.51,13.18696 -42.11685,13.7864 -33.5229,0.45029 -37.62136,0.68466 -41.22368,2.35736 -10.38711,4.82313 -19.74084,5.747 -28,2.76555 z m 386.66265,-54.91952 8.33736,-1.81974 0.89773,-9.66974 c 0.53031,-5.71213 0.53031,-14.47344 0,-21.40677 L 582.24071,94.66678 578.7407,93.8288 c -1.92499,-0.4609 -5.10059,-1.18785 -7.05686,-1.61546 -1.95628,-0.42762 -5.0612,-1.52795 -6.89983,-2.44518 -2.26586,-1.13036 -3.72754,-1.34851 -4.53659,-0.67706 -0.6565,0.54484 -4.70258,1.86749 -8.9913,2.93922 -4.28872,1.07173 -8.26908,2.42001 -8.84525,2.99618 -1.35055,1.35055 -1.98666,38.61028 -0.7002,41.01404 0.65309,1.2203 3.23299,2.15003 8.43557,3.03996 4.12211,0.70511 8.52968,1.825 9.7946,2.48864 1.36437,0.71582 2.97616,0.86984 3.96251,0.37863 0.91446,-0.45539 5.41446,-1.64686 10,-2.64772 z m -249.56187,1.88966 c 1.59457,-0.49883 5.71172,-1.46031 9.14922,-2.13665 l 6.25,-1.22969 0,-21.29597 c 0,-23.8891 0.88987,-21.39491 -8.35645,-23.42215 -2.67104,-0.58563 -6.55698,-1.88638 -8.6354,-2.89056 -2.87477,-1.38894 -4.2251,-1.56965 -5.64355,-0.75524 -1.02553,0.5888 -5.4646,1.99633 -9.8646,3.12784 l -8,2.05728 -0.26621,21.47605 -0.26622,21.47604 10.26622,2.09757 c 13.01051,2.65827 11.97277,2.55728 15.367,1.49548 z"
     id="path5646"
     inkscape:connector-curvature="0"
     sodipodi:nodetypes="ccsssscccssccssscssssssssssssssssssssssssssscscsssssssssssssssssssssssssssscsssscsssscssssssscssscsssssscsssssscscsssscssscssssscsscssssssssscssscssssscccss" />
  <path
     style="fill:#000000"
     d=""
     id="path5644"
     inkscape:connector-curvature="0" />
  <path
     style="fill:#000000"
     d=""
     id="path5642"
     inkscape:connector-curvature="0" />
  <path
     sodipodi:type="arc"
     style="fill:#ffffff;fill-opacity:1;fill-rule:nonzero;stroke:#000000;stroke-width:2;stroke-miterlimit:4;stroke-opacity:0;stroke-dasharray:none"
     id="path5490"
     sodipodi:cx="271.04688"
     sodipodi:cy="388.73828"
     sodipodi:rx="87.376953"
     sodipodi:ry="87.376953"
     d="m 358.42383,388.73828 a 87.376953,87.376953 0 1 1 -174.75391,0 87.376953,87.376953 0 1 1 174.75391,0 z"
     transform="matrix(2.0769272,0,0,2.1428725,-122.93111,-332.15145)" />
  <path
     style="fill:#000000"
     d="m 497.62349,690.07396 c -2.17939,-1.08717 -5.19873,-3.16103 -6.70965,-4.60858 -3.29176,-3.15372 -6.82783,-10.32934 -6.82783,-13.85554 0,-1.39825 -0.5625,-2.73721 -1.25,-2.97545 -0.98032,-0.33972 -95.60671,-3.52043 -104.33994,-3.50722 -1.55142,0.002 -2.43107,1.03678 -3.41382,4.01454 -1.81529,5.50041 -7.04532,11.32138 -12.458,13.86564 -5.41605,2.54585 -14.59138,2.83437 -19.87889,0.62511 -16.45852,-6.87681 -19.94727,-29.39617 -6.35637,-41.02947 2.23136,-1.90996 4.65102,-3.47266 5.37702,-3.47266 0.726,0 1.32,-0.7679 1.32,-1.70645 0,-1.20037 -59.52543,-170.44223 -64.69114,-183.92896 -0.29675,-0.77475 -3.03546,-0.98369 -8.62188,-0.65778 -9.25129,0.53971 -13.30588,-0.67728 -19.04515,-5.71642 -6.99928,-6.14546 -9.79659,-18.58908 -6.14396,-27.33104 6.10847,-14.61964 25.27319,-19.49475 37.82345,-9.62151 1.55173,1.22074 3.1659,1.82411 3.58706,1.34084 0.42116,-0.48327 14.41033,-15.90039 31.08706,-34.26025 28.49656,-31.37264 30.2402,-33.50906 28.97347,-35.5 -5.19402,-8.16349 -6.51621,-17.67096 -3.47104,-24.95908 6.72518,-16.09563 29.1508,-19.93502 40.55737,-6.94365 4.01339,4.57099 5.17439,7.49421 5.87125,14.78282 l 0.57351,5.99852 90.5,28.21385 c 49.775,15.51761 91.2875,28.23078 92.25,28.25148 0.9625,0.0207 1.75,-0.33137 1.75,-0.78237 0,-0.451 1.5627,-2.64566 3.47266,-4.87702 11.6333,-13.5909 34.15266,-10.10215 41.02948,6.35637 1.92292,4.60221 1.92292,14.07909 0,18.6813 -2.30008,5.50486 -6.94912,10.16337 -13.00351,13.02999 l -5.49863,2.60347 0,74.29463 0,74.29463 4.42207,1.30568 c 21.05557,6.21697 22.35378,37.09471 1.91858,45.63308 -5.68717,2.37626 -14.67495,1.93748 -20.52758,-1.00213 -2.73757,-1.375 -5.42618,-2.5 -5.97469,-2.5 -0.72752,0 -43.23014,33.90878 -50.15678,40.0153 -0.45013,0.39683 -0.11263,2.41068 0.75,4.47523 1.98495,4.75066 2.02025,14.1838 0.0705,18.85012 -2.18421,5.22757 -6.89293,10.15274 -12.00298,12.55475 -5.91359,2.77971 -15.44208,2.80164 -20.96167,0.0482 z m -12.82155,-28.92267 c 0.81864,-2.42176 2.18979,-5.47361 3.047,-6.78188 1.52705,-2.33057 1.36865,-2.56938 -7.83243,-11.80888 -5.16504,-5.18661 -10.07488,-9.44524 -10.91074,-9.46362 -0.83586,-0.0184 -21.93498,5.48222 -46.88693,12.22357 -62.7465,16.95242 -62.83569,16.73255 7.66611,18.8974 28.43559,0.87316 52.08975,1.53109 52.56481,1.46209 0.47506,-0.069 1.53354,-2.10691 2.35218,-4.52868 z m -62.46593,-18.52292 c 24.24109,-6.56293 43.75,-12.33915 43.75,-12.95353 0,-1.06907 -40.0735,-41.54451 -41.13196,-41.54451 -0.45963,0 -38.52573,39.95525 -49.6667,52.13159 l -4.23775,4.63158 2.60739,5.19118 c 1.43406,2.85516 3.12975,5.01056 3.7682,4.78979 0.63846,-0.22076 20.84832,-5.73151 44.91082,-12.2461 z m 131.25,-10.37118 c 13.2,-10.71852 24.15359,-19.59799 24.34131,-19.73217 0.61551,-0.43997 -0.83931,-3.84985 -2.60783,-6.11239 l -1.73348,-2.21771 -18.5,5.00151 c -10.175,2.75082 -20.82353,5.66253 -23.6634,6.47046 l -5.16339,1.46896 -4.61001,13.74724 -4.61002,13.74724 2.25838,1.5 c 1.24211,0.825 3.61114,2.69701 5.2645,4.16001 1.65337,1.46301 3.46013,2.3889 4.01503,2.05753 0.5549,-0.33136 11.80891,-9.37217 25.00891,-20.09068 z m -59.2099,15.61817 2.79012,-2.24503 -3.19547,-8 c -1.7575,-4.4 -3.68804,-8.53024 -4.2901,-9.1783 -0.83607,-0.89996 -2.92537,-0.68523 -8.84465,0.90903 -4.2625,1.14803 -7.75,2.56886 -7.75,3.15741 0,1.37311 16.12142,17.61349 17.47792,17.60689 0.56215,-0.003 2.27763,-1.01523 3.81218,-2.25 z M 518.8599,631.3673 c 2.29751,-6.94052 4.02172,-12.77469 3.8316,-12.96482 -0.32736,-0.32735 -29.76956,7.55859 -30.33643,8.12545 -0.33568,0.33568 5.79918,15.74247 6.81004,17.1024 0.41874,0.56334 3.96899,0.85942 8.13041,0.67805 l 7.38709,-0.32195 z M 396.42086,615.00569 c 21.15999,-22.37103 26.41677,-28.45714 25.69615,-29.75 -0.49829,-0.89395 -14.21999,-14.90036 -30.49266,-31.12536 -19.99428,-19.93571 -29.83821,-29.09945 -30.36253,-28.26456 -0.42671,0.6795 -1.55721,20.4795 -2.5122,44 -0.95499,23.52051 -2.00859,48.18404 -2.34133,54.80785 l -0.60498,12.04329 3.9395,1.30015 c 2.16672,0.71509 5.04283,2.1481 6.39135,3.18448 1.34852,1.03637 2.72922,1.89432 3.06822,1.90655 0.33901,0.0122 12.58733,-12.63385 27.21848,-28.1024 z m -43.69328,20.89559 c 0.61759,-0.99929 5.10599,-94.72136 5.30338,-110.73958 l 0.0551,-4.46862 -36.73183,-36.78138 c -20.20251,-20.22975 -36.96501,-36.76706 -37.25,-36.74957 -0.28499,0.0175 -1.36726,0.67465 -2.40506,1.46035 -1.80674,1.36785 -0.6015,5.05196 28.36943,86.7182 16.64097,46.90931 31.59514,89.00215 33.23146,93.53965 2.77835,7.70426 3.16344,8.25 5.82156,8.25 1.56552,0 3.18822,-0.55307 3.606,-1.22905 z m 127.29464,-8.87966 c 4.1601,-1.15979 7.7419,-2.2754 7.95959,-2.47913 0.42115,-0.39414 -27.76703,-70.38562 -28.86421,-71.67007 -0.66727,-0.78117 -30.85004,30.62126 -31.79247,33.07715 -0.72183,1.88109 40.58491,43.18076 43.18816,43.18076 1.06984,0 5.34886,-0.94892 9.50893,-2.10871 z m 30.45268,-8.3222 c 7.08889,-1.93245 13.15382,-3.77845 13.4776,-4.10223 1.10118,-1.10119 14.96183,-44.93564 14.4637,-45.74163 -0.27258,-0.44105 -14.92936,-8.02152 -32.57061,-16.84549 l -32.07501,-16.04358 -6.34229,6.79445 c -3.48824,3.73694 -6.34228,7.08136 -6.34228,7.43204 0,0.48974 20.36811,50.91668 28.52747,70.62771 1.24313,3.0031 1.51587,3.13759 4.64659,2.29132 1.82926,-0.49447 9.12594,-2.48014 16.21483,-4.41259 z m 50.86111,-13.7358 11.75,-3.14646 0,-6.26163 c 0,-3.44389 0.26453,-6.95098 0.58785,-7.79353 0.44924,-1.17072 -3.23061,-3.44395 -15.60713,-9.64133 -8.90724,-4.46017 -16.33341,-7.97012 -16.5026,-7.79987 -0.76447,0.76925 -14.17737,42.77695 -13.78409,43.17023 0.24347,0.24347 5.24941,-0.86765 11.12432,-2.46914 5.87491,-1.60149 15.96915,-4.32771 22.43165,-6.05827 z M 438.69352,570.38033 c 7.17175,-7.5625 14.44246,-15.35423 16.15714,-17.31496 l 3.1176,-3.56496 -5.04726,-12.43504 c -2.77598,-6.83927 -5.64863,-13.11004 -6.38365,-13.93504 -1.59122,-1.78604 -83.15882,-42.64016 -83.78699,-41.96573 -0.23858,0.25615 -0.7615,9.39826 -1.16207,20.3158 l -0.72829,19.85008 31.34176,31.39992 c 17.23797,17.26996 31.81661,31.39993 32.39699,31.39993 0.58038,0 6.92302,-6.1875 14.09477,-13.75 z m 140.38358,7.25 c 0.002,-1.75341 -28.19641,-33.698 -28.98105,-32.83144 -0.41407,0.45729 -2.35611,5.67797 -4.31564,11.6015 l -3.5628,10.77006 2.1842,1.38664 c 1.20131,0.76265 8.4842,4.55107 16.1842,8.41871 l 14,7.03207 2.24503,-2.68877 c 1.23477,-1.47882 2.2455,-3.13877 2.24606,-3.68877 z m 13.91629,-6.4492 3.59262,-0.5832 0.78875,-73.41162 c 0.43382,-40.37638 0.56044,-74.00659 0.28139,-74.7338 -0.29693,-0.77381 -2.07568,-1.32199 -4.28876,-1.32173 l -3.78138,4.5e-4 -19,58.60964 c -10.45,32.2353 -19.13918,59.20228 -19.30928,59.92663 -0.17011,0.72435 6.48828,9.2067 14.7964,18.84967 l 15.10569,17.53268 4.11098,-2.14276 c 2.26104,-1.17852 5.72766,-2.4052 7.70359,-2.72596 z m -48.88796,-17.60908 c 3.72353,-11.17332 4.02331,-12.74485 2.71831,-14.25 -0.80672,-0.93045 -8.98765,-10.46672 -18.17985,-21.19172 -9.19219,-10.725 -17.24633,-19.62492 -17.89808,-19.7776 -1.01567,-0.23794 -33.70914,33.55367 -34.41192,35.56778 -0.22016,0.63094 61.17558,32.00569 62.9193,32.15333 0.36694,0.0311 2.55045,-5.59474 4.85224,-12.50179 z m -78.30087,-11.65756 c 2.9048,-2.86871 5.28145,-5.69215 5.28145,-6.27431 0,-1.10608 -18.92053,-10.92266 -19.64877,-10.19441 -0.53163,0.53163 7.79272,21.68456 8.53356,21.68456 0.30378,0 2.92897,-2.34713 5.83376,-5.21584 z m 102.46905,-62.94098 c 13.18906,-40.64982 18.56001,-58.49557 17.82604,-59.22954 -1.2664,-1.2664 -0.27324,-2.2574 -41.43144,41.34108 -17.37021,18.4001 -31.5822,34.01091 -31.5822,34.69068 0,1.47285 35.16206,42.52587 35.84157,41.84636 0.25823,-0.25823 8.96394,-26.65009 19.34603,-58.64858 z m -76.75478,35.57286 17.61168,-18.58395 -1.77225,-2.36207 c -5.02677,-6.69972 -62.98466,-73.41469 -64.24396,-73.95083 -1.82556,-0.77723 -32.22195,1.49043 -33.34413,2.48756 -0.65185,0.57921 32.05283,82.90255 38.06156,95.80754 1.27517,2.73869 3.5587,4.33613 13.14873,9.19814 6.38305,3.23612 11.90281,5.9072 12.26612,5.93572 0.36332,0.0285 8.58583,-8.31093 18.27225,-18.53211 z m -47.49923,0.9093 c -4.11278,-10.81743 -37.39304,-92.00411 -37.99341,-92.68432 -0.68069,-0.77122 -39.91975,2.00832 -40.80402,2.89039 -0.48408,0.48287 -2.01745,32.65245 -2.08374,43.71611 l -0.0524,8.74752 39.75,19.94803 c 21.8625,10.97142 40.30136,19.97254 40.97525,20.00248 0.91652,0.0407 0.96902,-0.61948 0.20834,-2.62021 z m -85.54139,-2.57534 c 0.2831,-2.3375 0.76219,-10.88553 1.06462,-18.99562 l 0.54988,-14.74562 -36.05371,-18.03227 c -19.82954,-9.91775 -36.48105,-17.76816 -37.00335,-17.44536 -0.5223,0.3228 -0.94964,1.1205 -0.94964,1.77268 0,1.23218 69.96007,71.69619 71.18345,71.69619 0.3817,0 0.92564,-1.9125 1.20875,-4.25 z M 546.9546,455.97131 c 19.32228,-20.43746 35.11124,-37.42496 35.0866,-37.75 -0.0247,-0.32504 -1.94254,-2.70694 -4.26198,-5.2931 l -4.21716,-4.70213 -63.26909,5.17159 c -46.96136,3.83859 -63.19664,5.48441 -62.98802,6.38529 0.44755,1.93267 62.15974,73.31104 63.39965,73.33014 0.61523,0.009 16.92773,-16.70433 36.25,-37.14179 z m -186.50678,9.90902 c 0.33039,-5.6375 0.88855,-16.8875 1.24035,-25 l 0.63963,-14.75 -4.03205,0 c -7.39242,0 -65.70134,5.11607 -66.2556,5.81332 -1.31517,1.65446 -3.14774,8.62388 -2.34258,8.90903 0.48864,0.17306 16.18844,8.15449 34.88844,17.73652 18.7,9.58203 34.28375,17.44871 34.63055,17.4815 0.3468,0.0328 0.90087,-4.55287 1.23126,-10.19037 z m 1.53532,-43.3138 c 0.71864,-0.71862 3.37345,-69.28871 2.74595,-70.92393 -0.31917,-0.83175 -1.76657,-1.51227 -3.21647,-1.51227 -1.44989,0 -4.86499,-1.11948 -7.58911,-2.48773 l -4.95295,-2.48772 -2.19729,2.23772 c -5.52528,5.62696 -59.22583,65.04932 -59.53171,65.87483 -0.18945,0.51128 0.59805,2.93469 1.75,5.38535 1.15195,2.45067 2.09445,5.09885 2.09445,5.88486 0,4.30054 -0.64309,4.27712 35.75108,1.30172 19.09106,-1.56078 34.90678,-3.03355 35.14605,-3.27283 z m 25.45432,-1.61741 c 10.06327,-0.75165 16.01331,-1.60576 16.2947,-2.33906 0.3649,-0.9509 -26.65819,-68.82511 -27.89349,-70.0604 -0.29464,-0.29464 -5.70938,1.27377 -7.54389,2.18512 -0.28057,0.13939 -3.15447,61.51452 -3.1909,68.14555 -0.0214,3.88734 -0.91074,3.80495 22.33359,2.06879 z m 41.42919,-3.42193 c 5.65436,-0.37785 10.49361,-1.03159 10.75392,-1.45276 0.62745,-1.01523 -58.36618,-69.4441 -59.86888,-69.4441 -0.64112,0 -1.0247,0.675 -0.85237,1.5 0.56366,2.69871 27.42689,68.4639 28.53679,69.86233 0.77557,0.9772 2.50448,1.20108 6.11558,0.79192 2.76888,-0.31372 9.66062,-0.87955 15.31497,-1.25739 z m 79.21936,-6.44803 c 34.375,-2.78682 62.95,-5.20733 63.5,-5.37891 0.61148,-0.19076 0.80574,-3.33039 0.5,-8.0811 l -0.5,-7.76913 -90.97447,-28.29599 c -89.99046,-27.98994 -93.52553,-28.9404 -93.52553,-25.14565 0,0.56824 -1.14759,2.53774 -2.5502,4.37665 -1.60219,2.10058 -2.25273,3.83937 -1.75,4.67745 2.09158,3.48678 60.74536,70.66884 61.70395,70.67574 0.60294,0.004 29.22125,-2.27224 63.59625,-5.05906 z"
     id="path5486"
     inkscape:connector-curvature="0"
     sodipodi:nodetypes="cssscssssssssssssssssscssssssscccssssssssccssscsssssssscscsssscsscccsscsscsssscsscssscssssssscsscscscscssssccscsssssssscsssssscssssssssscsssscssscsscsscscscssscscscssssssscssssssssssssscssssscscssscscccsscsssssscscsscssscsscscscssscssssscsssssssssssssssscsssscs" />
  <path
     style="fill:#000000"
     d=""
     id="path5468"
     inkscape:connector-curvature="0" />
  <path
     style="fill:#000000"
     d=""
     id="path5466"
     inkscape:connector-curvature="0" />
  <path
     style="fill:#ffffff;fill-opacity:1;fill-rule:nonzero;stroke:#000000;stroke-width:2.52183008;stroke-miterlimit:4;stroke-opacity:0;stroke-dasharray:none"
     d=""
     id="path5510"
     inkscape:connector-curvature="0" />
  <path
     style="fill:#ffffff;fill-opacity:1;fill-rule:nonzero;stroke:#000000;stroke-width:2.52183008;stroke-miterlimit:4;stroke-opacity:0;stroke-dasharray:none"
     d=""
     id="path5516"
     inkscape:connector-curvature="0" />
  <path
     style="fill:#ffffff;fill-opacity:1;fill-rule:nonzero;stroke:#000000;stroke-width:2.52183008;stroke-miterlimit:4;stroke-opacity:0;stroke-dasharray:none"
     d=""
     id="path5548"
     inkscape:connector-curvature="0" />
  <g
     transform="translate(41.013672,-8.7687178)"
     style="font-size:90px;font-style:normal;font-weight:normal;line-height:125%;letter-spacing:0px;word-spacing:0px;fill:#000000;fill-opacity:1;stroke:none;font-family:Sans"
     id="flowRoot5667">
    <path
       d="m 178.39,116.91862 c 0,-2.7 -2.34,-2.7 -3.69,-2.7 l -10.71,0 c -1.35,0 -3.6,0 -3.6,2.7 0,2.78999 2.16,2.79 3.6,2.79 l 3.78,0 c -1.08,10.07999 -5.49,14.31 -10.26,14.31 -7.28999,0 -14.13,-9.72002 -14.13,-22.95 0,-13.769991 7.20001,-23.040005 14.22,-23.040005 3.15,0 8.82,2.07001 10.35,11.79 0.18,1.529995 0.72,2.610005 3.06,2.610005 3.15,0 3.15,-1.89001 3.15,-3.690005 l 0,-12.51 c 0,-1.439998 0,-3.69 -2.7,-3.69 -1.89,0 -2.34,0.990004 -3.69,4.05 -3.15,-2.699997 -6.75,-4.05 -10.53,-4.05 -10.79999,0 -20.07,12.150017 -20.07,28.440005 0,16.55998 9.36001,28.53 20.07,28.53 5.12999,0 8.91,-2.70001 10.71,-4.77 0,1.97999 0,3.78 3.15,3.78 3.06,0 3.06,-1.98001 3.06,-3.69 l 0,-15.12 c 2.16,0 4.23,-1e-5 4.23,-2.79"
       style="font-variant:normal;font-stretch:normal;font-family:Latin Modern Mono Caps;-inkscape-font-specification:Latin Modern Mono Caps"
       id="path3016" />
  </g>
  <g
     style="font-size:40px;font-style:normal;font-weight:normal;line-height:125%;letter-spacing:0px;word-spacing:0px;fill:#000000;fill-opacity:1;stroke:none;font-family:Sans"
     id="text5675">
    <path
       d="m 462.28633,76.964898 c 0,-2.699997 -2.34,-2.7 -3.69,-2.7 l -11.61,0 c -1.35,0 -3.69,3e-6 -3.69,2.7 0,2.789997 2.34,2.79 3.69,2.79 l 2.7,0 0,30.690002 c 0,9.62999 -5.94001,14.31 -10.62,14.31 -4.77,0 -10.62,-4.68001 -10.62,-14.31 l 0,-30.690002 2.7,0 c 1.35,0 3.69,-3e-6 3.69,-2.79 0,-2.699997 -2.34,-2.7 -3.69,-2.7 l -11.61,0 c -1.35,0 -3.69,3e-6 -3.69,2.7 0,2.789997 2.34,2.79 3.69,2.79 l 2.7,0 0,31.140002 c 0,11.06999 7.83001,19.35 16.83,19.35 8.99999,0 16.83,-8.28001 16.83,-19.35 l 0,-31.140002 2.7,0 c 1.44,0 3.69,-3e-6 3.69,-2.79"
       style="font-size:90px;font-variant:normal;font-stretch:normal;font-family:Latin Modern Mono Caps;-inkscape-font-specification:Latin Modern Mono Caps"
       id="path3019" />
  </g>
  <g
     style="font-size:40px;font-style:normal;font-weight:normal;line-height:125%;letter-spacing:0px;word-spacing:0px;fill:#000000;fill-opacity:1;stroke:none;font-family:Sans"
     id="text5679">
    <path
       d="m 699.49156,127.04989 c 0,-2.78999 -2.34,-2.79 -3.69,-2.79 l -9.72,0 0,-44.009997 9.72,0 c 1.35,0 3.69,-3e-6 3.69,-2.7 0,-2.789997 -2.34,-2.79 -3.69,-2.79 l -25.65,0 c -1.35,0 -3.69,3e-6 -3.69,2.7 0,2.789997 2.34,2.79 3.69,2.79 l 9.72,0 0,44.009997 -9.72,0 c -1.35,0 -3.69,1e-5 -3.69,2.7 0,2.79 2.34,2.79 3.69,2.79 l 25.65,0 c 1.35,0 3.69,0 3.69,-2.7"
       style="font-size:90px;font-variant:normal;font-stretch:normal;font-family:Latin Modern Mono Caps;-inkscape-font-specification:Latin Modern Mono Caps"
       id="path3022" />
  </g>
  <path
     style="fill:#000000"
     d="m 690.97596,187.68183 c 3.81868,-1.86416 3.6039,-3.33896 -0.96861,-6.65127 -6.08417,-4.40736 -11.1507,-3.73949 -16.69871,2.20122 -1.81059,1.93874 -2.01762,2.66436 -1,3.50486 3.78893,3.12946 13.21519,3.60674 18.66732,0.94519 z m -25.884,-5.73927 c 1.29941,-0.86947 1.24275,-1.20003 -0.42373,-2.47196 -2.79147,-2.13057 -5.48166,-2.36899 -32.57627,-2.88702 -24.48932,-0.46822 -30.98977,-1.24344 -35.56525,-4.24141 l -2.43475,-1.59531 0,-59.27801 c 0,-65.64089 -0.55723,-60.49197 6.5466,-60.49197 3.65269,0 5.94131,-2.56496 4.84283,-5.42756 -0.47368,-1.23437 -2.19821,-1.57244 -8.02117,-1.57244 -7.04235,0 -7.46712,0.12982 -8.39301,2.5651 -0.59732,1.57106 -0.97525,27.72884 -0.97525,67.49999 0,63.60158 0.0411,64.97598 2,66.93491 1.92601,1.92601 3.32256,1.99943 37.75,1.98469 22.23152,-0.01 36.31721,-0.39485 37.25,-1.01901 z m 110.9172,-1.36591 c 0.85551,-1.03083 1.18205,-19.01798 1.23774,-68.17913 0.0864,-76.24965 1.00786,-69.42064 -9.36751,-69.42064 -5.26526,0 -5.9419,0.24491 -6.98174,2.52712 -1.55112,3.40433 -0.0951,4.73269 5.94885,5.42741 l 4.74546,0.54547 0,59.49999 0,59.50001 -4.63673,2.3015 c -3.79301,1.88271 -7.25031,2.4702 -19,3.2286 -7.8998,0.50991 -20.57312,0.93673 -28.16293,0.9485 -10.38034,0.0161 -14.5307,0.39944 -16.75,1.54708 -1.62269,0.83912 -2.95034,1.96412 -2.95034,2.5 0,0.61505 13.78263,0.97432 37.37756,0.97432 30.82093,0 37.5814,-0.24562 38.53964,-1.40023 z m -100.28523,-4.68133 c 1.85241,-1.14486 3.36803,-2.4833 3.36803,-2.97432 0,-0.49102 -1.4625,-1.67579 -3.25,-2.63282 -2.77087,-1.48354 -7.38322,-1.83504 -31.28621,-2.38432 -25.14419,-0.57779 -28.50914,-0.85345 -32.62095,-2.6723 -2.52161,-1.11543 -4.93881,-2.60095 -5.37157,-3.30117 -0.43276,-0.70021 -0.82833,-24.66469 -0.87905,-53.25438 -0.0858,-48.3602 -0.21413,-52.05814 -1.84222,-53.08507 -1.27632,-0.80506 -2.22368,-0.80508 -3.5,-1.1e-4 -1.62729,1.02633 -1.76812,5.00325 -2.00838,56.71633 l -0.25839,55.61263 2.37464,1.55592 c 3.00126,1.9665 18.0517,3.18258 42.55767,3.43866 17.26782,0.18045 18.70127,0.3413 23,2.58091 5.65556,2.94651 5.59986,2.94422 9.71643,0.40004 z m 23.76836,-0.40147 c 4.81451,-2.34418 6.32984,-2.51553 27.09967,-3.06438 25.24171,-0.66702 36.89288,-1.70383 39.0242,-3.47268 1.29639,-1.0759 1.45842,-8.6073 1.23407,-57.35923 l -0.25828,-56.12068 -2.3869,-0.33749 c -1.31281,-0.18562 -2.76841,0.26438 -3.23469,1 -0.46627,0.73562 -0.85468,24.87528 -0.8631,53.64371 l -0.0153,52.30624 -4.5434,2.00976 c -6.09407,2.6957 -18.10574,3.8342 -40.9566,3.88198 -16.57796,0.0347 -19.54177,0.28564 -23.25,1.96887 -2.3375,1.06103 -4.25,2.27174 -4.25,2.69047 0,0.95633 5.18705,5.25203 6.40034,5.3005 0.49518,0.0198 3.19518,-1.0814 5.99999,-2.44707 z m -18.40034,-21.58643 c 0.43473,-10.78824 0.72845,-12.45172 2.25,-12.74262 1.58263,-0.30258 1.75146,0.74841 1.76531,10.98875 0.008,6.22783 0.41597,11.9562 0.90566,12.7297 0.72811,1.1501 1.68202,1.19959 5.23469,0.27161 2.3894,-0.62412 14.74563,-1.36953 27.4583,-1.65646 28.95146,-0.65344 35.92475,-1.76434 36.92106,-5.88182 0.28475,-1.17684 0.39337,-28.23971 0.24136,-60.13971 l -0.27638,-57.99999 -3,0.13927 c -1.65,0.0766 -7.04999,0.61091 -12,1.18737 -4.95,0.57646 -17.1,1.34721 -27,1.71277 -13.9661,0.5157 -18.92353,1.06461 -22.12095,2.44931 -4.84605,2.09866 -5.248,2.63272 -6.20624,8.24592 -0.81413,4.76903 -3.48293,5.96095 -3.95276,1.76536 -0.62043,-5.5404 -1.37255,-6.93113 -4.94124,-9.1367 -3.48247,-2.15229 -5.44862,-2.3811 -30.25166,-3.52058 -14.58993,-0.67028 -28.22069,-1.71942 -30.29058,-2.33142 -2.06988,-0.612 -4.20738,-0.83835 -4.75,-0.503 -0.63096,0.38996 -0.98657,22.17576 -0.98657,60.44213 l 0,59.83241 4.17011,1.66854 c 3.36892,1.34798 9.27674,1.78226 30.75,2.26043 17.63036,0.39259 27.75836,1.02076 30.07989,1.86564 1.925,0.70057 3.95001,1.15843 4.5,1.01746 0.56436,-0.14465 1.21782,-5.66175 1.5,-12.66437 z m -97.20589,-1.69501 c 0.23045,-5.6922 -0.0269,-7.38764 -1.18897,-7.83357 -2.0087,-0.77081 -12.56566,1.43796 -15.35514,3.21266 -2.50966,1.59668 -3.09705,6.43749 -0.99302,8.18369 1.7719,1.47055 11.75038,4.09806 14.74302,3.8821 2.39094,-0.17254 2.51283,-0.49732 2.7941,-7.44488 z m 207.19053,5.78669 c 7.41234,-1.92473 10.01536,-3.78094 10.01536,-7.14193 0,-2.20678 -2.50189,-4.73277 -5.31993,-5.37118 -8.72099,-1.97568 -11.93164,-2.47168 -12.74512,-1.96892 -1.57601,0.97403 -1.11322,16.77067 0.48172,16.44267 0.0458,-0.009 3.45142,-0.89171 7.56796,-1.96064 z m 13.16609,-3.92596 c -1.09588,2.25661 -5.34375,5.99381 -12.07849,7.44894 -4.54248,0.98146 -8.89202,2.41744 -9.66565,3.19106 -0.95786,0.95787 -1.4066,3.79096 -1.4066,8.88062 0,6.60206 -0.28635,7.76039 -2.45455,9.92857 l -2.45454,2.45455 -36.4439,0 -36.44391,0 -5.85154,3.17373 c -5.21945,2.83089 -6.76974,3.18114 -14.35155,3.2423 -7.61792,0.0615 -9.07076,-0.24195 -14,-2.92373 l -5.5,-2.9923 -37.5,-0.27651 c -44.00805,-0.32449 -41,0.52973 -41,-11.64314 0,-4.25593 -0.51093,-7.8387 -1.25,-8.76536 -0.6875,-0.862 -5.02945,-2.56316 -9.64878,-3.78036 -4.61933,-1.2172 -9.57257,-1.97493 -11.80881,-5.73657 -1.46666,-2.46712 -1.14271,-6.17786 0.3949,-8.6014 2.42291,-3.81892 7.69889,-5.42583 11.99734,-6.33687 4.29844,-0.91103 8.37785,-2.35069 9.06535,-3.19924 0.91212,-1.12579 1.25,-7.26961 1.25,-22.72924 0,-15.74292 -0.32117,-21.44636 -1.25,-22.1981 -0.6875,-0.55642 -4.55435,-1.80754 -8.593,-2.78026 -4.03864,-0.97272 -10.47975,-2.141834 -13.02136,-6.226934 -1.38752,-2.230132 -1.2708,-5.633451 0.0915,-7.879071 2.50523,-4.129627 8.64786,-5.893635 12.77286,-6.842815 4.125,-0.94917 8.0625,-2.18103 8.75,-2.73745 0.86045,-0.6964 1.25,-4.37889 1.25,-11.81665 0,-10.48171 0.0788,-10.86698 2.63486,-12.87755 2.10191,-1.65336 4.06644,-2.07258 9.71243,-2.07258 6.45182,0 7.26376,-0.23349 9.18331,-2.64084 l 2.10573,-2.64083 7.43183,1.57772 c 7.11221,1.50988 13.85251,2.01643 43.93184,3.3016 12.17361,0.52013 13.96567,0.83814 18.23955,3.23665 4.2873,2.40605 4.95523,2.5233 7,1.22881 6.06729,-3.84106 7.86141,-4.1452 30.24982,-5.12789 12.45236,-0.54657 26.0989,-1.65551 30.32565,-2.46432 10.30021,-1.971 11.68674,-1.87823 14.5376,0.97263 1.95878,1.95877 3.44123,2.4358 7.47274,2.40457 6.9939,-0.0542 11.01884,0.99227 12.18296,3.16744 0.54542,1.01914 0.99168,6.31281 0.99168,11.76373 0,11.89707 0.15828,12.10121 11.36159,14.65316 9.0974,2.07224 11.63841,4.06632 11.63841,9.1333 0,5.089197 -2.98098,9.34618 -13.83582,11.48174 -3.47065,0.68281 -6.9524,1.8836 -7.73723,2.66843 -1.14713,1.14712 -1.42395,5.58004 -1.41164,22.60552 0.008,11.64821 0.38776,21.76579 0.84297,22.48351 0.45522,0.71772 3.93583,1.94505 7.73469,2.72742 10.98052,2.26139 9.73944,2.6732 12.30786,4.39875 2.09557,2.39542 2.43748,3.44247 2.77282,5.45425 0.2054,1.23222 0.0306,2.57123 -0.52292,3.71101 z M 583.89108,80.576 c 0.16453,-3.79548 -0.12487,-7.32487 -0.64309,-7.84309 -1.17771,-1.17771 -11.74799,0.8494 -14.90604,2.85859 -2.62115,1.66761 -3.06524,6.46389 -0.77451,8.36503 1.73269,1.438 11.13807,3.90426 14.02451,3.67748 1.75963,-0.13825 2.03595,-0.98655 2.29913,-7.05801 z m 210.61744,4.20233 c 4.87874,-1.63298 6.33106,-3.77342 5.04382,-7.43366 -0.76793,-2.1836 -1.97458,-2.99999 -5.9616,-4.03347 -2.74933,-0.71267 -6.46129,-1.30443 -8.24879,-1.31504 l -3.25,-0.0193 0,7.63592 0,7.63593 4.26414,-0.58447 c 2.34527,-0.32145 6.01387,-1.17012 8.15243,-1.88591 z"
     id="path5750"
     inkscape:connector-curvature="0"
     sodipodi:nodetypes="ssssscsssscssssssscsssssscccssssssssssssssssscssscsssscssscsssscsscssssscssssssssscscssssssssssssssscsssssssscccssscssssaasssscaasssssscsssssssssssssscsscassssssssscccssss" />
  <path
     style="fill:#000000"
     d="m 448.621,187.71491 c 3.81868,-1.86416 3.6039,-3.33896 -0.96861,-6.65127 -6.08417,-4.40736 -11.1507,-3.73949 -16.69871,2.20122 -1.81059,1.93874 -2.01762,2.66436 -1,3.50486 3.78893,3.12946 13.21519,3.60674 18.66732,0.94519 z m -25.884,-5.73927 c 1.29941,-0.86947 1.24275,-1.20003 -0.42373,-2.47196 -2.79147,-2.13057 -5.48166,-2.36899 -32.57627,-2.88702 -24.48932,-0.46822 -30.98977,-1.24344 -35.56525,-4.24141 l -2.43475,-1.59531 0,-59.27801 c 0,-65.640896 -0.55723,-60.491973 6.5466,-60.491973 3.65269,0 5.94131,-2.56496 4.84283,-5.427563 -0.47368,-1.23437 -2.19821,-1.57244 -8.02117,-1.57244 -7.04235,0 -7.46712,0.12982 -8.39301,2.5651 -0.59732,1.571063 -0.97525,27.728843 -0.97525,67.499996 0,63.60158 0.0411,64.97598 2,66.93491 1.92601,1.92601 3.32256,1.99943 37.75,1.98469 22.23152,-0.01 36.31721,-0.39485 37.25,-1.01901 z m 110.9172,-1.36591 c 0.85551,-1.03083 1.18205,-19.01798 1.23774,-68.17913 0.0864,-76.249656 1.00786,-69.420646 -9.36751,-69.420646 -5.26526,0 -5.9419,0.24491 -6.98174,2.52712 -1.55112,3.404333 -0.0951,4.732693 5.94885,5.427413 l 4.74546,0.54547 0,59.499993 0,59.50001 -4.63673,2.3015 c -3.79301,1.88271 -7.25031,2.4702 -19,3.2286 -7.8998,0.50991 -20.57312,0.93673 -28.16293,0.9485 -10.38034,0.0161 -14.5307,0.39944 -16.75,1.54708 -1.62269,0.83912 -2.95034,1.96412 -2.95034,2.5 0,0.61505 13.78263,0.97432 37.37756,0.97432 30.82093,0 37.5814,-0.24562 38.53964,-1.40023 z M 433.36897,175.9284 c 1.85241,-1.14486 3.36803,-2.4833 3.36803,-2.97432 0,-0.49102 -1.4625,-1.67579 -3.25,-2.63282 -2.77087,-1.48354 -7.38322,-1.83504 -31.28621,-2.38432 -25.14419,-0.57779 -28.50914,-0.85345 -32.62095,-2.6723 -2.52161,-1.11543 -4.93881,-2.60095 -5.37157,-3.30117 -0.43276,-0.70021 -0.82833,-24.66469 -0.87905,-53.25438 -0.0858,-48.360203 -0.21413,-52.058143 -1.84222,-53.085073 -1.27632,-0.80506 -2.22368,-0.80508 -3.5,-1.1e-4 -1.62729,1.02633 -1.76812,5.00325 -2.00838,56.716333 l -0.25839,55.61263 2.37464,1.55592 c 3.00126,1.9665 18.0517,3.18258 42.55767,3.43866 17.26782,0.18045 18.70127,0.3413 23,2.58091 5.65556,2.94651 5.59986,2.94422 9.71643,0.40004 z m 23.76836,-0.40147 c 4.81451,-2.34418 6.32984,-2.51553 27.09967,-3.06438 25.24171,-0.66702 36.89288,-1.70383 39.0242,-3.47268 1.29639,-1.0759 1.45842,-8.6073 1.23407,-57.35923 l -0.25828,-56.120683 -2.3869,-0.33749 c -1.31281,-0.18562 -2.76841,0.26438 -3.23469,1 -0.46627,0.73562 -0.85468,24.87528 -0.8631,53.643713 l -0.0153,52.30624 -4.5434,2.00976 c -6.09407,2.6957 -18.10574,3.8342 -40.9566,3.88198 -16.57796,0.0347 -19.54177,0.28564 -23.25,1.96887 -2.3375,1.06103 -4.25,2.27174 -4.25,2.69047 0,0.95633 5.18705,5.25203 6.40034,5.3005 0.49518,0.0198 3.19518,-1.0814 5.99999,-2.44707 z M 438.73699,153.9405 c 0.43473,-10.78824 0.72845,-12.45172 2.25,-12.74262 1.58263,-0.30258 1.75146,0.74841 1.76531,10.98875 0.008,6.22783 0.41597,11.9562 0.90566,12.7297 0.72811,1.1501 1.68202,1.19959 5.23469,0.27161 2.3894,-0.62412 14.74563,-1.36953 27.4583,-1.65646 28.95146,-0.65344 35.92475,-1.76434 36.92106,-5.88182 0.28475,-1.17684 0.39337,-28.23971 0.24136,-60.139713 l -0.27638,-57.999993 -3,0.13927 c -1.65,0.0766 -7.04999,0.61091 -12,1.18737 -4.95,0.57646 -17.1,1.34721 -27,1.71277 -13.9661,0.5157 -18.92353,1.06461 -22.12095,2.44931 -4.84605,2.09866 -5.248,2.63272 -6.20624,8.245923 -0.81413,4.76903 -3.48293,5.96095 -3.95276,1.76536 -0.62043,-5.5404 -1.37255,-6.93113 -4.94124,-9.136703 -3.48247,-2.15229 -5.44862,-2.3811 -30.25166,-3.52058 -14.58993,-0.67028 -28.22069,-1.71942 -30.29058,-2.33142 -2.06988,-0.612 -4.20738,-0.83835 -4.75,-0.503 -0.63096,0.38996 -0.98657,22.175763 -0.98657,60.442136 l 0,59.83241 4.17011,1.66854 c 3.36892,1.34798 9.27674,1.78226 30.75,2.26043 17.63036,0.39259 27.75836,1.02076 30.07989,1.86564 1.925,0.70057 3.95001,1.15843 4.5,1.01746 0.56436,-0.14465 1.21782,-5.66175 1.5,-12.66437 z m -97.20589,-1.69501 c 0.23045,-5.6922 -0.0269,-7.38764 -1.18897,-7.83357 -2.0087,-0.77081 -12.56566,1.43796 -15.35514,3.21266 -2.50966,1.59668 -3.09705,6.43749 -0.99302,8.18369 1.7719,1.47055 11.75038,4.09806 14.74302,3.8821 2.39094,-0.17254 2.51283,-0.49732 2.7941,-7.44488 z m 207.19053,5.78669 c 7.41234,-1.92473 10.01536,-3.78094 10.01536,-7.14193 0,-2.20678 -2.50189,-4.73277 -5.31993,-5.37118 -8.72099,-1.97568 -11.93164,-2.47168 -12.74512,-1.96892 -1.57601,0.97403 -1.11322,16.77067 0.48172,16.44267 0.0458,-0.009 3.45142,-0.89171 7.56796,-1.96064 z m 13.16609,-3.92596 c -1.09588,2.25661 -5.34375,5.99381 -12.07849,7.44894 -4.54248,0.98146 -8.89202,2.41744 -9.66565,3.19106 -0.95786,0.95787 -1.4066,3.79096 -1.4066,8.88062 0,6.60206 -0.28635,7.76039 -2.45455,9.92857 l -2.45454,2.45455 -36.4439,0 -36.44391,0 -5.85154,3.17373 c -5.21945,2.83089 -6.76974,3.18114 -14.35155,3.2423 -7.61792,0.0615 -9.07076,-0.24195 -14,-2.92373 l -5.5,-2.9923 -37.5,-0.27651 c -44.00805,-0.32449 -41,0.52973 -41,-11.64314 0,-4.25593 -0.51093,-7.8387 -1.25,-8.76536 -0.6875,-0.862 -5.02945,-2.56316 -9.64878,-3.78036 -4.61933,-1.2172 -9.57257,-1.97493 -11.80881,-5.73657 -1.46666,-2.46712 -1.14271,-6.17786 0.3949,-8.6014 2.42291,-3.81892 7.69889,-5.42583 11.99734,-6.33687 4.29844,-0.91103 8.37785,-2.35069 9.06535,-3.19924 0.91212,-1.12579 1.25,-7.26961 1.25,-22.72924 0,-15.74292 -0.32117,-21.446363 -1.25,-22.198103 -0.6875,-0.55642 -4.55435,-1.80754 -8.593,-2.78026 -4.03864,-0.97272 -10.47975,-2.14184 -13.02136,-6.22694 -1.38752,-2.23013 -1.2708,-5.63345 0.0915,-7.87907 2.50523,-4.12963 8.64786,-5.89363 12.77286,-6.84281 4.125,-0.94917 8.0625,-2.18103 8.75,-2.73745 0.86045,-0.6964 1.25,-4.37889 1.25,-11.81665 0,-10.481713 0.0788,-10.866983 2.63486,-12.877553 2.10191,-1.65336 4.06644,-2.07258 9.71243,-2.07258 6.45182,0 7.26376,-0.23349 9.18331,-2.64084 l 2.10573,-2.64083 7.43183,1.57772 c 7.11221,1.50988 13.85251,2.01643 43.93184,3.3016 12.17361,0.52013 13.96567,0.83814 18.23955,3.23665 4.2873,2.40605 4.95523,2.5233 7,1.22881 6.06729,-3.84106 7.86141,-4.1452 30.24982,-5.12789 12.45236,-0.54657 26.0989,-1.65551 30.32565,-2.46432 10.30021,-1.971 11.68674,-1.87823 14.5376,0.97263 1.95878,1.95877 3.44123,2.4358 7.47274,2.40457 6.9939,-0.0542 11.01884,0.99227 12.18296,3.16744 0.54542,1.01914 0.99168,6.312813 0.99168,11.763733 0,11.89707 0.15828,12.10121 11.36159,14.65316 9.0974,2.07224 11.63841,4.06632 11.63841,9.1333 0,5.08919 -2.98098,9.34618 -13.83582,11.48174 -3.47065,0.68281 -6.9524,1.8836 -7.73723,2.66843 -1.14713,1.14712 -1.42395,5.580043 -1.41164,22.605523 0.008,11.64821 0.38776,21.76579 0.84297,22.48351 0.45522,0.71772 3.93583,1.94505 7.73469,2.72742 10.98052,2.26139 9.73944,2.6732 12.30786,4.39875 2.09557,2.39542 2.43748,3.44247 2.77282,5.45425 0.2054,1.23222 0.0306,2.57123 -0.52292,3.71101 z M 341.53612,80.609077 c 0.16453,-3.79548 -0.12487,-7.32487 -0.64309,-7.84309 -1.17771,-1.17771 -11.74799,0.8494 -14.90604,2.85859 -2.62115,1.66761 -3.06524,6.46389 -0.77451,8.36503 1.73269,1.438 11.13807,3.90426 14.02451,3.67748 1.75963,-0.13825 2.03595,-0.98655 2.29913,-7.05801 z m 210.61744,4.20233 c 4.87874,-1.63298 6.33106,-3.77342 5.04382,-7.43366 -0.76793,-2.1836 -1.97458,-2.99999 -5.9616,-4.03347 -2.74933,-0.71267 -6.46129,-1.30443 -8.24879,-1.31504 l -3.25,-0.0193 0,7.63592 0,7.63593 4.26414,-0.58447 c 2.34527,-0.32145 6.01387,-1.17012 8.15243,-1.88591 z"
     id="path5750-2"
     inkscape:connector-curvature="0"
     sodipodi:nodetypes="ssssscsssscssssssscsssssscccssssssssssssssssscssscsssscssscsssscsscssssscssssssssscscssssssssssssssscsssssssscccssscssssaasssscaasssssscsssssssssssssscsscassssssssscccssss" />
  <path
     style="fill:#000000"
     d="m 206.63393,187.60627 c 3.81868,-1.86416 3.6039,-3.33896 -0.96861,-6.65127 -6.08417,-4.40736 -11.1507,-3.73949 -16.69871,2.20122 -1.81059,1.93874 -2.01762,2.66436 -1,3.50486 3.78893,3.12946 13.21519,3.60674 18.66732,0.94519 z m -25.884,-5.73927 c 1.29941,-0.86947 1.24275,-1.20003 -0.42373,-2.47196 -2.79147,-2.13057 -5.48166,-2.36899 -32.57627,-2.88702 -24.48932,-0.46822 -30.98977,-1.24344 -35.56525,-4.24141 l -2.43475,-1.59531 0,-59.27801 c 0,-65.640887 -0.55723,-60.491967 6.5466,-60.491967 3.65269,0 5.94131,-2.56496 4.84283,-5.42756 -0.47368,-1.23437 -2.19821,-1.57244 -8.02117,-1.57244 -7.04235,0 -7.46712,0.12982 -8.39301,2.5651 -0.59732,1.57106 -0.97525,27.72884 -0.97525,67.499987 0,63.60158 0.0411,64.97598 2,66.93491 1.92601,1.92601 3.32256,1.99943 37.75,1.98469 22.23152,-0.01 36.31721,-0.39485 37.25,-1.01901 z m 110.9172,-1.36591 c 0.85551,-1.03083 1.18205,-19.01798 1.23774,-68.17913 0.0864,-76.249647 1.00786,-69.420637 -9.36751,-69.420637 -5.26526,0 -5.9419,0.24491 -6.98174,2.52712 -1.55112,3.40433 -0.0951,4.73269 5.94885,5.42741 l 4.74546,0.54547 0,59.499987 0,59.50001 -4.63673,2.3015 c -3.79301,1.88271 -7.25031,2.4702 -19,3.2286 -7.8998,0.50991 -20.57312,0.93673 -28.16293,0.9485 -10.38034,0.0161 -14.5307,0.39944 -16.75,1.54708 -1.62269,0.83912 -2.95034,1.96412 -2.95034,2.5 0,0.61505 13.78263,0.97432 37.37756,0.97432 30.82093,0 37.5814,-0.24562 38.53964,-1.40023 z M 191.3819,175.81976 c 1.85241,-1.14486 3.36803,-2.4833 3.36803,-2.97432 0,-0.49102 -1.4625,-1.67579 -3.25,-2.63282 -2.77087,-1.48354 -7.38322,-1.83504 -31.28621,-2.38432 -25.14419,-0.57779 -28.50914,-0.85345 -32.62095,-2.6723 -2.52161,-1.11543 -4.93881,-2.60095 -5.37157,-3.30117 -0.43276,-0.70021 -0.82833,-24.66469 -0.87905,-53.25438 -0.0858,-48.360197 -0.21413,-52.058137 -1.84222,-53.085067 -1.27632,-0.80506 -2.22368,-0.80508 -3.5,-1.1e-4 -1.62729,1.02633 -1.76812,5.00325 -2.00838,56.716327 l -0.25839,55.61263 2.37464,1.55592 c 3.00126,1.9665 18.0517,3.18258 42.55767,3.43866 17.26782,0.18045 18.70127,0.3413 23,2.58091 5.65556,2.94651 5.59986,2.94422 9.71643,0.40004 z m 23.76836,-0.40147 c 4.81451,-2.34418 6.32984,-2.51553 27.09967,-3.06438 25.24171,-0.66702 36.89288,-1.70383 39.0242,-3.47268 1.29639,-1.0759 1.45842,-8.6073 1.23407,-57.35923 l -0.25828,-56.120677 -2.3869,-0.33749 c -1.31281,-0.18562 -2.76841,0.26438 -3.23469,1 -0.46627,0.73562 -0.85468,24.87528 -0.8631,53.643707 l -0.0153,52.30624 -4.5434,2.00976 c -6.09407,2.6957 -18.10574,3.8342 -40.9566,3.88198 -16.57796,0.0347 -19.54177,0.28564 -23.25,1.96887 -2.3375,1.06103 -4.25,2.27174 -4.25,2.69047 0,0.95633 5.18705,5.25203 6.40034,5.3005 0.49518,0.0198 3.19518,-1.0814 5.99999,-2.44707 z m -18.40034,-21.58643 c 0.43473,-10.78824 0.72845,-12.45172 2.25,-12.74262 1.58263,-0.30258 1.75146,0.74841 1.76531,10.98875 0.008,6.22783 0.41597,11.9562 0.90566,12.7297 0.72811,1.1501 1.68202,1.19959 5.23469,0.27161 2.3894,-0.62412 14.74563,-1.36953 27.4583,-1.65646 28.95146,-0.65344 35.92475,-1.76434 36.92106,-5.88182 0.28475,-1.17684 0.39337,-28.23971 0.24136,-60.139707 l -0.27638,-57.99999 -3,0.13927 c -1.65,0.0766 -7.04999,0.61091 -12,1.18737 -4.95,0.57646 -17.1,1.34721 -27,1.71277 -13.9661,0.5157 -18.92353,1.06461 -22.12095,2.44931 -4.84605,2.09866 -5.248,2.63272 -6.20624,8.24592 -0.81413,4.76903 -3.48293,5.96095 -3.95276,1.76536 -0.62043,-5.5404 -1.37255,-6.93113 -4.94124,-9.1367 -3.48247,-2.15229 -5.44862,-2.3811 -30.25166,-3.52058 -14.58993,-0.67028 -28.22069,-1.71942 -30.29058,-2.33142 -2.06988,-0.612 -4.20738,-0.83835 -4.75,-0.503 -0.63096,0.38996 -0.98657,22.17576 -0.98657,60.442127 l 0,59.83241 4.17011,1.66854 c 3.36892,1.34798 9.27674,1.78226 30.75,2.26043 17.63036,0.39259 27.75836,1.02076 30.07989,1.86564 1.925,0.70057 3.95001,1.15843 4.5,1.01746 0.56436,-0.14465 1.21782,-5.66175 1.5,-12.66437 z m -97.205886,-1.69501 c 0.23045,-5.6922 -0.0269,-7.38764 -1.18897,-7.83357 -2.0087,-0.77081 -12.56566,1.43796 -15.35514,3.21266 -2.50966,1.59668 -3.09705,6.43749 -0.99302,8.18369 1.7719,1.47055 11.75038,4.09806 14.74302,3.8821 2.39094,-0.17254 2.51283,-0.49732 2.7941,-7.44488 z m 207.190526,5.78669 c 7.41234,-1.92473 10.01536,-3.78094 10.01536,-7.14193 0,-2.20678 -2.50189,-4.73277 -5.31993,-5.37118 -8.72099,-1.97568 -11.93164,-2.47168 -12.74512,-1.96892 -1.57601,0.97403 -1.11322,16.77067 0.48172,16.44267 0.0458,-0.009 3.45142,-0.89171 7.56796,-1.96064 z m 13.16609,-3.92596 c -1.09588,2.25661 -5.34375,5.99381 -12.07849,7.44894 -4.54248,0.98146 -8.89202,2.41744 -9.66565,3.19106 -0.95786,0.95787 -1.4066,3.79096 -1.4066,8.88062 0,6.60206 -0.28635,7.76039 -2.45455,9.92857 l -2.45454,2.45455 -36.4439,0 -36.44391,0 -5.85154,3.17373 c -5.21945,2.83089 -6.76974,3.18114 -14.35155,3.2423 -7.61792,0.0615 -9.07076,-0.24195 -14,-2.92373 l -5.5,-2.9923 -37.5,-0.27651 c -44.008046,-0.32449 -41,0.52973 -41,-11.64314 0,-4.25593 -0.51093,-7.8387 -1.249996,-8.76536 -0.6875,-0.862 -5.02945,-2.56316 -9.64878,-3.78036 -4.61933,-1.2172 -9.57257,-1.97493 -11.80881,-5.73657 -1.46666,-2.46712 -1.14271,-6.17786 0.3949,-8.6014 2.42291,-3.81892 7.69889,-5.42583 11.99734,-6.33687 4.29844,-0.91103 8.37785,-2.35069 9.06535,-3.19924 0.912116,-1.12579 1.249996,-7.26961 1.249996,-22.72924 0,-15.74292 -0.32117,-21.446357 -1.249996,-22.198097 -0.6875,-0.55642 -4.55435,-1.80754 -8.593,-2.78026 -4.03864,-0.97272 -10.47975,-2.14183 -13.02136,-6.22693 -1.38752,-2.23013 -1.2708,-5.63345 0.0915,-7.87907 2.50523,-4.12963 8.64786,-5.89364 12.77286,-6.84282 4.125,-0.94917 8.0625,-2.18103 8.75,-2.73745 0.860446,-0.6964 1.249996,-4.37889 1.249996,-11.81665 0,-10.48171 0.0788,-10.86698 2.63486,-12.87755 2.10191,-1.65336 4.06644,-2.07258 9.71243,-2.07258 6.45182,0 7.26376,-0.23349 9.18331,-2.64084 l 2.10573,-2.64083 7.43183,1.57772 c 7.11221,1.50988 13.85251,2.01643 43.93184,3.3016 12.17361,0.52013 13.96567,0.83814 18.23955,3.23665 4.2873,2.40605 4.95523,2.5233 7,1.22881 6.06729,-3.84106 7.86141,-4.1452 30.24982,-5.12789 12.45236,-0.54657 26.0989,-1.65551 30.32565,-2.46432 10.30021,-1.971 11.68674,-1.87823 14.5376,0.97263 1.95878,1.95877 3.44123,2.4358 7.47274,2.40457 6.9939,-0.0542 11.01884,0.99227 12.18296,3.16744 0.54542,1.01914 0.99168,6.31281 0.99168,11.76373 0,11.89707 0.15828,12.10121 11.36159,14.65316 9.0974,2.07224 11.63841,4.06632 11.63841,9.1333 0,5.0892 -2.98098,9.34618 -13.83582,11.48174 -3.47065,0.68281 -6.9524,1.8836 -7.73723,2.66843 -1.14713,1.14712 -1.42395,5.580037 -1.41164,22.605517 0.008,11.64821 0.38776,21.76579 0.84297,22.48351 0.45522,0.71772 3.93583,1.94505 7.73469,2.72742 10.98052,2.26139 9.73944,2.6732 12.30786,4.39875 2.09557,2.39542 2.43748,3.44247 2.77282,5.45425 0.2054,1.23222 0.0306,2.57123 -0.52292,3.71101 z M 99.549054,80.500443 c 0.16453,-3.79548 -0.12487,-7.32487 -0.64309,-7.84309 -1.17771,-1.17771 -11.74799,0.8494 -14.90604,2.85859 -2.62115,1.66761 -3.06524,6.46389 -0.77451,8.36503 1.73269,1.438 11.13807,3.90426 14.02451,3.67748 1.75963,-0.13825 2.03595,-0.98655 2.29913,-7.05801 z m 210.617436,4.20233 c 4.87874,-1.63298 6.33106,-3.77342 5.04382,-7.43366 -0.76793,-2.1836 -1.97458,-2.99999 -5.9616,-4.03347 -2.74933,-0.71267 -6.46129,-1.30443 -8.24879,-1.31504 l -3.25,-0.0193 0,7.63592 0,7.63593 4.26414,-0.58447 c 2.34527,-0.32145 6.01387,-1.17012 8.15243,-1.88591 z"
     id="path5750-3"
     inkscape:connector-curvature="0"
     sodipodi:nodetypes="ssssscsssscssssssscsssssscccssssssssssssssssscssscsssscssscsssscsscssssscssssssssscscssssssssssssssscsssssssscccssscssssaasssscaasssssscsssssssssssssscsscassssssssscccssss" />
  <path
     style="fill:#000000"
     d="M 427.4538,873.05787 C 365.00683,840.05847 291.04948,784.71911 235.82245,729.66759 183.47444,677.48596 145.45822,625.77101 116.21437,566.96007 94.455847,523.2025 80.109007,480.01366 72.599851,435.66559 l -2.5079,-14.81129 0,-209.83172 c 0,-190.4166 0.14636,-209.88789 1.58179,-210.43871 2.40145,-0.92153004 735.730539,-0.69550004 737.184199,0.22721 1.01614,0.645 1.21349,42.43003 1,211.73469 l -0.26598,210.93111 -2.77939,15 c -10.86766,58.65137 -29.66119,108.36026 -61.05856,161.5 -50.1961,84.95636 -131.9995,167.75193 -232.14387,234.95959 -26.53953,17.8108 -70.76815,44.0849 -74.10808,44.0238 -0.50056,-0.01 -5.92227,-2.6652 -12.04826,-5.9024 z m 21.66237,-1.4196 c 58.42482,-33.9077 115.05,-74.76326 160.89852,-116.08996 11.07627,-9.9839 45.35061,-43.65799 52.66851,-51.74613 19.48108,-21.53159 27.65141,-30.87676 31.75861,-36.3253 2.48758,-3.3 7.27341,-9.6 10.63516,-14 3.36175,-4.4 7.65652,-10.025 9.54394,-12.5 29.75477,-39.01786 56.37732,-89.33797 71.51497,-135.17267 6.75057,-20.43978 13.68841,-47.66614 17.1564,-67.32733 2.27126,-12.87661 2.29307,-13.81151 2.29636,-98.5 l 0.003,-85.5 -82.5,0 c -147.33195,0 -647.437929,1.65262 -648.229929,2.1421 -0.42354,0.26176 -0.75544,37.01188 -0.73755,81.66692 0.0337,84.18473 0.15743,87.28712 4.43361,111.19098 5.617863,31.40385 19.856268,76.01035 32.267149,101.08747 1.60939,3.25189 3.54432,7.48753 4.29984,9.41253 5.75978,14.67537 36.88234,65.80679 50.06912,82.25882 2.41876,3.0177 9.34297,11.95602 15.38713,19.86293 6.04415,7.90691 13.93644,17.52666 17.53843,21.37723 3.60198,3.85056 10.87933,11.95102 16.17187,18.00102 9.92186,11.34185 37.04643,38.55213 46.35354,46.50003 2.89827,2.475 10.62967,9.2825 17.18089,15.1277 35.13404,31.3482 82.54398,65.98716 129.00102,94.25176 21.57244,13.1249 31.19757,18.4932 33.28909,18.5669 0.83832,0.03 4.88832,-1.8987 9,-4.285 z M 155.84195,244.63408 c 1.42126,-0.88145 1.78323,-20.26897 0.41856,-22.4187 -0.62751,-0.9885 -9.55137,-1.20491 -41.23467,-1 l -40.433889,0.2615 -0.28571,10.93573 c -0.15714,6.01466 -0.0385,11.58003 0.2637,12.36749 0.46758,1.21851 6.467738,1.37199 40.285719,1.03048 21.85496,-0.2207 40.29879,-0.75013 40.98629,-1.1765 z m 184.72852,-0.62245 -0.47852,-23.04995 c -0.69151,0.14184 -85.28978,-0.0966 -86.23469,1.37275 -0.88552,1.377 -1.01667,18.82383 -0.15832,21.06066 0.54042,1.40832 5.30447,1.58179 43.44098,1.58179 26.44928,0 43.06219,-0.36922 43.43055,-0.96525 z m 184.18875,-0.36684 c 1.03421,-1.03341 1.75883,-17.83405 0.91433,-21.19881 l -0.6197,-2.4691 -41.28095,0 c -30.77407,0 -41.58638,0.30543 -42.48095,1.2 -1.6788,1.6788 -1.6363,20.95387 0.05,22.67816 0.9848,1.00698 9.87804,1.20853 41.91727,0.95 22.36699,-0.18049 41.04199,-0.7026 41.5,-1.16025 z m 184.13274,-0.86791 c 0.77746,-0.77746 1.2,-4.8144 1.2,-11.46482 0,-9.26632 -0.19598,-10.3697 -2.0147,-11.34305 -2.42848,-1.29968 -78.99228,-1.22388 -81.10248,0.0803 -1.4468,0.89417 -2.51085,17.27433 -1.40817,21.67758 l 0.56345,2.25 40.78095,0 c 30.38518,0 41.08685,-0.3059 41.98095,-1.2 z m 97.76501,-92.72998 c 0,0 -0.62989,-49.04793 -0.80833,-73.57314 -0.17461,-23.998511 -0.25669,-71.99698 -0.25669,-71.99698 l -365.5,0 -365.500009,0 -0.25769,101.99999 c -0.14174,56.10001 -0.0242,102.61236 0.26112,103.36079 0.43426,1.13898 13.434355,1.26174 79.757689,0.75314 43.5814,-0.33421 207.26389,-0.8835 363.73889,-1.22065 l -10e-6,1e-4 c 171.14084,-0.36875 285.1973,-0.9817 286.25,-1.53832 1.59984,-0.84592 1.53733,-3.21626 1.75,-27.613"
     id="path5386"
     inkscape:connector-curvature="0"
     sodipodi:nodetypes="sssscsssscssscscsssssssscssssssssssssscccssscssssccssscsscssssscsssscscccacccsssccsc" />
</svg>
